<svg width="54" height="66" viewBox="0 0 54 66" fill="none" xmlns="http://www.w3.org/2000/svg">
<mask id="path-1-outside-1_28_2" maskUnits="userSpaceOnUse" x="-1" y="-1" width="56" height="68" fill="black">
<rect fill="white" x="-1" y="-1" width="56" height="68"/>
<path d="M53.352 0.815998C53.352 4.08 52.232 5.712 49.992 5.712L46.152 6L26.184 30.48L47.688 60.816L53.64 61.392C53.704 61.84 53.736 62.416 53.736 63.12C53.736 63.76 53.416 64.4 52.776 65.04C52.2 65.68 51.432 66 50.472 66H40.968L20.712 37.2L16.584 42.192V60.624L24.072 61.2C24.392 64.4 23.336 66 20.904 66H0.936V65.232C0.936 62.608 2.056 61.2 4.296 61.008L8.232 60.816V6.192L1.224 5.616C0.904 2.416 1.96 0.815998 4.392 0.815998H23.976V1.68C23.976 4.176 22.856 5.52 20.616 5.712L16.68 6L16.584 34.224L39.144 6.096L33 5.616C32.68 2.416 33.704 0.815998 36.072 0.815998H53.352Z"/>
</mask>
<path d="M53.352 0.815998C53.352 4.08 52.232 5.712 49.992 5.712L46.152 6L26.184 30.48L47.688 60.816L53.64 61.392C53.704 61.84 53.736 62.416 53.736 63.12C53.736 63.76 53.416 64.4 52.776 65.04C52.2 65.68 51.432 66 50.472 66H40.968L20.712 37.2L16.584 42.192V60.624L24.072 61.2C24.392 64.4 23.336 66 20.904 66H0.936V65.232C0.936 62.608 2.056 61.2 4.296 61.008L8.232 60.816V6.192L1.224 5.616C0.904 2.416 1.96 0.815998 4.392 0.815998H23.976V1.68C23.976 4.176 22.856 5.52 20.616 5.712L16.68 6L16.584 34.224L39.144 6.096L33 5.616C32.68 2.416 33.704 0.815998 36.072 0.815998H53.352Z" fill="#441256"/>
<path d="M53.352 0.815998H54.352V-0.184002H53.352V0.815998ZM49.992 5.712V4.712H49.9546L49.9172 4.7148L49.992 5.712ZM46.152 6L46.0772 5.0028L45.6487 5.03494L45.3771 5.36792L46.152 6ZM26.184 30.48L25.4091 29.8479L24.9281 30.4375L25.3682 31.0583L26.184 30.48ZM47.688 60.816L46.8722 61.3943L47.1366 61.7673L47.5917 61.8113L47.688 60.816ZM53.64 61.392L54.63 61.2506L54.5188 60.4724L53.7363 60.3966L53.64 61.392ZM52.776 65.04L52.0689 64.3329L52.0503 64.3515L52.0327 64.371L52.776 65.04ZM40.968 66L40.1501 66.5753L40.4488 67H40.968V66ZM20.712 37.2L21.5299 36.6247L20.7762 35.5531L19.9414 36.5627L20.712 37.2ZM16.584 42.192L15.8134 41.5547L15.584 41.8321V42.192H16.584ZM16.584 60.624H15.584V61.55L16.5073 61.6211L16.584 60.624ZM24.072 61.2L25.067 61.1005L24.9837 60.2672L24.1487 60.2029L24.072 61.2ZM0.936 66H-0.0639999V67H0.936V66ZM4.296 61.008L4.24728 60.0092L4.22892 60.0101L4.2106 60.0117L4.296 61.008ZM8.232 60.816L8.28072 61.8148L9.232 61.7684V60.816H8.232ZM8.232 6.192H9.232V5.27082L8.31392 5.19536L8.232 6.192ZM1.224 5.616L0.228963 5.7155L0.311853 6.5444L1.14209 6.61264L1.224 5.616ZM23.976 0.815998H24.976V-0.184002H23.976V0.815998ZM20.616 5.712L20.689 6.70941L20.7014 6.70834L20.616 5.712ZM16.68 6L16.607 5.00267L15.6832 5.07027L15.68 5.9966L16.68 6ZM16.584 34.224L15.584 34.2206L15.5743 37.0812L17.3641 34.8497L16.584 34.224ZM39.144 6.096L39.9241 6.72167L41.1074 5.24634L39.2219 5.09904L39.144 6.096ZM33 5.616L32.005 5.7155L32.0882 6.54781L32.9221 6.61296L33 5.616ZM52.352 0.815998C52.352 2.36469 52.0807 3.34925 51.6875 3.92216C51.3409 4.42726 50.8329 4.712 49.992 4.712V6.712C51.3911 6.712 52.5632 6.18074 53.3365 5.05384C54.0633 3.99474 54.352 2.5313 54.352 0.815998H52.352ZM49.9172 4.7148L46.0772 5.0028L46.2268 6.9972L50.0668 6.7092L49.9172 4.7148ZM45.3771 5.36792L25.4091 29.8479L26.9589 31.1121L46.9269 6.63208L45.3771 5.36792ZM25.3682 31.0583L46.8722 61.3943L48.5038 60.2377L26.9998 29.9017L25.3682 31.0583ZM47.5917 61.8113L53.5437 62.3873L53.7363 60.3966L47.7843 59.8206L47.5917 61.8113ZM52.6501 61.5334C52.7048 61.9164 52.736 62.4404 52.736 63.12H54.736C54.736 62.3916 54.7032 61.7636 54.63 61.2506L52.6501 61.5334ZM52.736 63.12C52.736 63.4012 52.5999 63.8019 52.0689 64.3329L53.4831 65.7471C54.2321 64.9981 54.736 64.1188 54.736 63.12H52.736ZM52.0327 64.371C51.6693 64.7748 51.1848 65 50.472 65V67C51.6792 67 52.7307 66.5852 53.5193 65.709L52.0327 64.371ZM50.472 65H40.968V67H50.472V65ZM41.786 65.4247L21.5299 36.6247L19.8941 37.7753L40.1501 66.5753L41.786 65.4247ZM19.9414 36.5627L15.8134 41.5547L17.3546 42.8293L21.4826 37.8373L19.9414 36.5627ZM15.584 42.192V60.624H17.584V42.192H15.584ZM16.5073 61.6211L23.9953 62.1971L24.1487 60.2029L16.6607 59.6269L16.5073 61.6211ZM23.077 61.2995C23.2283 62.8128 23.0257 63.7335 22.6854 64.2492C22.3924 64.6931 21.886 65 20.904 65V67C22.354 67 23.5916 66.5069 24.3546 65.3508C25.0703 64.2665 25.2357 62.7872 25.067 61.1005L23.077 61.2995ZM20.904 65H0.936V67H20.904V65ZM1.936 66V65.232H-0.0639999V66H1.936ZM1.936 65.232C1.936 64.0458 2.19118 63.2924 2.5586 62.8305C2.90672 62.3929 3.46244 62.0831 4.3814 62.0043L4.2106 60.0117C2.88956 60.1249 1.76528 60.6151 0.993399 61.5855C0.240819 62.5316 -0.0639999 63.7942 -0.0639999 65.232H1.936ZM4.34472 62.0068L8.28072 61.8148L8.18328 59.8172L4.24728 60.0092L4.34472 62.0068ZM9.232 60.816V6.192H7.232V60.816H9.232ZM8.31392 5.19536L1.30592 4.61936L1.14209 6.61264L8.15009 7.18864L8.31392 5.19536ZM2.21904 5.5165C2.06771 4.00321 2.27027 3.08251 2.61061 2.56684C2.90363 2.12287 3.41001 1.816 4.392 1.816V-0.184002C2.94199 -0.184002 1.70437 0.309124 0.941391 1.46516C0.22573 2.54949 0.0602916 4.02879 0.228963 5.7155L2.21904 5.5165ZM4.392 1.816H23.976V-0.184002H4.392V1.816ZM22.976 0.815998V1.68H24.976V0.815998H22.976ZM22.976 1.68C22.976 2.79206 22.7254 3.49066 22.3678 3.91981C22.0238 4.3326 21.4641 4.63564 20.5306 4.71565L20.7014 6.70834C22.0079 6.59635 23.1282 6.13139 23.9042 5.20018C24.6666 4.28534 24.976 3.06393 24.976 1.68H22.976ZM20.543 4.71466L16.607 5.00267L16.753 6.99733L20.689 6.70933L20.543 4.71466ZM15.68 5.9966L15.584 34.2206L17.584 34.2274L17.68 6.0034L15.68 5.9966ZM17.3641 34.8497L39.9241 6.72167L38.3639 5.47033L15.8039 33.5983L17.3641 34.8497ZM39.2219 5.09904L33.0779 4.61904L32.9221 6.61296L39.0661 7.09296L39.2219 5.09904ZM33.995 5.5165C33.8433 3.9993 34.0387 3.07315 34.3703 2.55505C34.652 2.1148 35.1329 1.816 36.072 1.816V-0.184002C34.6431 -0.184002 33.428 0.317199 32.6857 1.47695C31.9933 2.55884 31.8367 4.0327 32.005 5.7155L33.995 5.5165ZM36.072 1.816H53.352V-0.184002H36.072V1.816Z" fill="black" fill-opacity="0.5" mask="url(#path-1-outside-1_28_2)"/>
</svg>
